{
  "accessors": [
    {
      "bufferView": 2,
      "componentType": 5126,
      "count": 65532,
      "max": [
        -16.063024520874023,
        12.953825950622559,
        63.025421142578125
      ],
      "min": [
        -89.03801727294922,
        -16.44638442993164,
        24.88998794555664
      ],
      "type": "VEC3"
    },
    {
      "bufferView": 2,
      "byteOffset": 786384,
      "componentType": 5126,
      "count": 65532,
      "max": [
        0.9995734095573425,
        0.9407867193222046,
        0.9909636378288269
      ],
      "min": [
        -0.993755578994751,
        -0.9570025205612183,
        -0.941752016544342
      ],
      "type": "VEC3"
    },
    {
      "bufferView": 1,
      "componentType": 5126,
      "count": 65532,
      "max": [
        1.0,
        1.0
      ],
      "min": [
        0.0,
        0.0
      ],
      "type": "VEC2"
    },
    {
      "bufferView": 0,
      "componentType": 5125,
      "count": 174900,
      "type": "SCALAR"
    },
    {
      "bufferView": 2,
      "byteOffset": 1572768,
      "componentType": 5126,
      "count": 43788,
      "max": [
        -16.787887573242188,
        13.117608070373535,
        57.62062454223633
      ],
      "min": [
        -87.33905792236328,
        -15.541004180908203,
        22.30551528930664
      ],
      "type": "VEC3"
    },
    {
      "bufferView": 2,
      "byteOffset": 2098224,
      "componentType": 5126,
      "count": 43788,
      "max": [
        0.9733651280403137,
        0.9227675795555115,
        0.9950376152992249
      ],
      "min": [
        -0.9998576641082764,
        -0.957534670829773,
        -0.824151337146759
      ],
      "type": "VEC3"
    },
    {
      "bufferView": 1,
      "byteOffset": 524256,
      "componentType": 5126,
      "count": 43788,
      "max": [
        1.0,
        1.0
      ],
      "min": [
        0.0,
        0.0
      ],
      "type": "VEC2"
    },
    {
      "bufferView": 0,
      "byteOffset": 699600,
      "componentType": 5125,
      "count": 116916,
      "type": "SCALAR"
    },
    {
      "bufferView": 2,
      "byteOffset": 2623680,
      "componentType": 5126,
      "count": 65532,
      "max": [
        98.4834976196289,
        12.953825950622559,
        63.02541732788086
      ],
      "min": [
        25.50850486755371,
        -16.44638442993164,
        24.889982223510742
      ],
      "type": "VEC3"
    },
    {
      "bufferView": 2,
      "byteOffset": 3410064,
      "componentType": 5126,
      "count": 65532,
      "max": [
        0.9995731711387634,
        0.9570024609565735,
        0.9416699409484863
      ],
      "min": [
        -0.9937554597854614,
        -0.9407868385314941,
        -0.9909636378288269
      ],
      "type": "VEC3"
    },
    {
      "bufferView": 1,
      "byteOffset": 874560,
      "componentType": 5126,
      "count": 65532,
      "max": [
        1.0,
        1.0
      ],
      "min": [
        0.0,
        0.0
      ],
      "type": "VEC2"
    },
    {
      "bufferView": 0,
      "byteOffset": 1167264,
      "componentType": 5125,
      "count": 174900,
      "type": "SCALAR"
    },
    {
      "bufferView": 2,
      "byteOffset": 4196448,
      "componentType": 5126,
      "count": 43788,
      "max": [
        96.78453826904297,
        13.117608070373535,
        57.6206169128418
      ],
      "min": [
        26.233367919921875,
        -15.541004180908203,
        22.305511474609375
      ],
      "type": "VEC3"
    },
    {
      "bufferView": 2,
      "byteOffset": 4721904,
      "componentType": 5126,
      "count": 43788,
      "max": [
        0.9733648300170898,
        0.9575346112251282,
        0.8241083025932312
      ],
      "min": [
        -0.9998576641082764,
        -0.9227674007415771,
        -0.9950377941131592
      ],
      "type": "VEC3"
    },
    {
      "bufferView": 1,
      "byteOffset": 1398816,
      "componentType": 5126,
      "count": 43788,
      "max": [
        1.0,
        1.0
      ],
      "min": [
        0.0,
        0.0
      ],
      "type": "VEC2"
    },
    {
      "bufferView": 0,
      "byteOffset": 1866864,
      "componentType": 5125,
      "count": 116916,
      "type": "SCALAR"
    },
    {
      "bufferView": 2,
      "byteOffset": 5247360,
      "componentType": 5126,
      "count": 727,
      "max": [
        88.09037780761719,
        58.89949417114258,
        38.542747497558594
      ],
      "min": [
        18.224483489990234,
        -3.8482730388641357,
        -0.5587339997291565
      ],
      "type": "VEC3"
    },
    {
      "bufferView": 2,
      "byteOffset": 5256084,
      "componentType": 5126,
      "count": 727,
      "max": [
        0.7310498356819153,
        0.9629116654396057,
        0.9999996423721313
      ],
      "min": [
        -0.974676251411438,
        0.00015863760199863464,
        -0.9999997019767761
      ],
      "type": "VEC3"
    },
    {
      "bufferView": 0,
      "byteOffset": 2334528,
      "componentType": 5125,
      "count": 1767,
      "type": "SCALAR"
    },
    {
      "bufferView": 2,
      "byteOffset": 5264808,
      "componentType": 5126,
      "count": 54112,
      "max": [
        24.11203384399414,
        61.207542419433594,
        12.775653839111328
      ],
      "min": [
        -41.10124969482422,
        41.15053939819336,
        -2.3647289276123047
      ],
      "type": "VEC3"
    },
    {
      "bufferView": 2,
      "byteOffset": 5914152,
      "componentType": 5126,
      "count": 54112,
      "max": [
        0.9996700882911682,
        0.9999982714653015,
        0.9999999403953552
      ],
      "min": [
        -0.9998726844787598,
        -0.9999998807907104,
        -1.0
      ],
      "type": "VEC3"
    },
    {
      "bufferView": 1,
      "byteOffset": 1749120,
      "componentType": 5126,
      "count": 54112,
      "max": [
        1.0,
        1.0
      ],
      "min": [
        0.0,
        0.0
      ],
      "type": "VEC2"
    },
    {
      "bufferView": 0,
      "byteOffset": 2341596,
      "componentType": 5125,
      "count": 228939,
      "type": "SCALAR"
    },
    {
      "bufferView": 2,
      "byteOffset": 6563496,
      "componentType": 5126,
      "count": 4956,
      "max": [
        43.052894592285156,
        53.665191650390625,
        44.343013763427734
      ],
      "min": [
        -33.606876373291016,
        1.8800159692764282,
        -27.715469360351563
      ],
      "type": "VEC3"
    },
    {
      "bufferView": 2,
      "byteOffset": 6622968,
      "componentType": 5126,
      "count": 4956,
      "max": [
        0.9984981417655945,
        0.9999894499778748,
        0.9978866577148438
      ],
      "min": [
        -0.9984709620475769,
        -0.9999203681945801,
        -0.9878882169723511
      ],
      "type": "VEC3"
    },
    {
      "bufferView": 1,
      "byteOffset": 2182016,
      "componentType": 5126,
      "count": 4956,
      "max": [
        0.9916769862174988,
        0.9916769862174988
      ],
      "min": [
        0.008322999812662601,
        0.044881001114845276
      ],
      "type": "VEC2"
    },
    {
      "bufferView": 0,
      "byteOffset": 3257352,
      "componentType": 5125,
      "count": 26880,
      "type": "SCALAR"
    },
    {
      "bufferView": 2,
      "byteOffset": 6682440,
      "componentType": 5126,
      "count": 21462,
      "max": [
        111.60858154296875,
        63.15980529785156,
        100.85028839111328
      ],
      "min": [
        -98.73405456542969,
        -49.345279693603516,
        -74.68365478515625
      ],
      "type": "VEC3"
    },
    {
      "bufferView": 2,
      "byteOffset": 6939984,
      "componentType": 5126,
      "count": 21462,
      "max": [
        0.9983990788459778,
        0.9999977946281433,
        0.9982160329818726
      ],
      "min": [
        -0.9983988404273987,
        -0.9999991655349731,
        -0.8441873788833618
      ],
      "type": "VEC3"
    },
    {
      "bufferView": 1,
      "byteOffset": 2221664,
      "componentType": 5126,
      "count": 21462,
      "max": [
        1.0065009593963623,
        0.6666669845581055
      ],
      "min": [
        0.0,
        0.6666669845581055
      ],
      "type": "VEC2"
    },
    {
      "bufferView": 0,
      "byteOffset": 3364872,
      "componentType": 5125,
      "count": 108528,
      "type": "SCALAR"
    },
    {
      "bufferView": 2,
      "byteOffset": 7197528,
      "componentType": 5126,
      "count": 496,
      "max": [
        19.659866333007813,
        47.529842376708984,
        63.13022994995117
      ],
      "min": [
        -10.225135803222656,
        20.57429313659668,
        46.096923828125
      ],
      "type": "VEC3"
    },
    {
      "bufferView": 2,
      "byteOffset": 7203480,
      "componentType": 5126,
      "count": 496,
      "max": [
        0.9906020760536194,
        0.9904541969299316,
        0.9984122514724731
      ],
      "min": [
        -0.9948335289955139,
        -0.9993440508842468,
        -0.9972239136695862
      ],
      "type": "VEC3"
    },
    {
      "bufferView": 1,
      "byteOffset": 2393360,
      "componentType": 5126,
      "count": 496,
      "max": [
        1.0,
        1.0
      ],
      "min": [
        0.0,
        0.0
      ],
      "type": "VEC2"
    },
    {
      "bufferView": 0,
      "byteOffset": 3798984,
      "componentType": 5125,
      "count": 2700,
      "type": "SCALAR"
    },
    {
      "bufferView": 2,
      "byteOffset": 7209432,
      "componentType": 5126,
      "count": 3985,
      "max": [
        73.53839874267578,
        73.74678802490234,
        33.19827651977539
      ],
      "min": [
        -86.85177612304688,
        -15.290610313415527,
        -3.719804048538208
      ],
      "type": "VEC3"
    },
    {
      "bufferView": 2,
      "byteOffset": 7257252,
      "componentType": 5126,
      "count": 3985,
      "max": [
        0.8191588521003723,
        0.9939095973968506,
        0.15244494378566742
      ],
      "min": [
        -0.9948955774307251,
        -0.9731584787368774,
        -0.5171685814857483
      ],
      "type": "VEC3"
    },
    {
      "bufferView": 1,
      "byteOffset": 2397328,
      "componentType": 5126,
      "count": 3985,
      "max": [
        1.0,
        0.0
      ],
      "min": [
        0.0,
        -1.0
      ],
      "type": "VEC2"
    },
    {
      "bufferView": 0,
      "byteOffset": 3809784,
      "componentType": 5125,
      "count": 22320,
      "type": "SCALAR"
    }
  ],
  "asset": {
    "extras": {
      "author": "cbcap (https://sketchfab.com/cbcap)",
      "license": "CC-BY-4.0 (http://creativecommons.org/licenses/by/4.0/)",
      "source": "https://sketchfab.com/3d-models/heart-valentines-day-obj-7a911ec546ba4459b59d24975f1a7576",
      "title": "Heart Valentines Day OBJ"
    },
    "generator": "Sketchfab-12.67.0",
    "version": "2.0"
  },
  "bufferViews": [
    {
      "buffer": 0,
      "byteLength": 3899064,
      "name": "floatBufferViews",
      "target": 34963
    },
    {
      "buffer": 0,
      "byteLength": 2429208,
      "byteOffset": 3899064,
      "byteStride": 8,
      "name": "floatBufferViews",
      "target": 34962
    },
    {
      "buffer": 0,
      "byteLength": 7305072,
      "byteOffset": 6328272,
      "byteStride": 12,
      "name": "floatBufferViews",
      "target": 34962
    }
  ],
  "buffers": [
    {
      "byteLength": 13633344,
      "uri": "scene.bin"
    }
  ],
  "materials": [
    {
      "doubleSided": true,
      "name": "Feather_Main_mt",
      "pbrMetallicRoughness": {
        "baseColorFactor": [
          0.9702419872056897,
          0.5491899293809092,
          0.5491899293809092,
          1.0
        ],
        "metallicFactor": 0.0,
        "roughnessFactor": 0.6
      }
    },
    {
      "doubleSided": true,
      "name": "HVD_mt",
      "pbrMetallicRoughness": {
        "baseColorFactor": [
          0.0692389334608928,
          0.04979917230448049,
          0.04979917230448049,
          1.0
        ],
        "metallicFactor": 0.0856394257935338,
        "roughnessFactor": 0.6
      }
    },
    {
      "doubleSided": true,
      "name": "Haert_Big_Mt",
      "pbrMetallicRoughness": {
        "baseColorFactor": [
          0.7256344861269033,
          0.0,
          0.0,
          1.0
        ],
        "roughnessFactor": 0.6
      }
    },
    {
      "doubleSided": true,
      "name": "Hearts_mt",
      "pbrMetallicRoughness": {
        "baseColorFactor": [
          1.0,
          0.0009079123163536201,
          0.0009079123163536201,
          1.0
        ],
        "metallicFactor": 0.0,
        "roughnessFactor": 0.6
      }
    },
    {
      "doubleSided": true,
      "name": "Nimbus_mt",
      "pbrMetallicRoughness": {
        "baseColorFactor": [
          1.0,
          0.0,
          0.2407392810633739,
          1.0
        ],
        "roughnessFactor": 0.6
      }
    },
    {
      "doubleSided": true,
      "name": "Tape_mt",
      "pbrMetallicRoughness": {
        "metallicFactor": 0.0,
        "roughnessFactor": 0.607652004409886
      }
    }
  ],
  "meshes": [
    {
      "name": "Object_0",
      "primitives": [
        {
          "attributes": {
            "NORMAL": 1,
            "POSITION": 0,
            "TEXCOORD_0": 2
          },
          "indices": 3,
          "material": 0,
          "mode": 4
        }
      ]
    },
    {
      "name": "Object_1",
      "primitives": [
        {
          "attributes": {
            "NORMAL": 5,
            "POSITION": 4,
            "TEXCOORD_0": 6
          },
          "indices": 7,
          "material": 0,
          "mode": 4
        }
      ]
    },
    {
      "name": "Object_2",
      "primitives": [
        {
          "attributes": {
            "NORMAL": 9,
            "POSITION": 8,
            "TEXCOORD_0": 10
          },
          "indices": 11,
          "material": 0,
          "mode": 4
        }
      ]
    },
    {
      "name": "Object_3",
      "primitives": [
        {
          "attributes": {
            "NORMAL": 13,
            "POSITION": 12,
            "TEXCOORD_0": 14
          },
          "indices": 15,
          "material": 0,
          "mode": 4
        }
      ]
    },
    {
      "name": "Object_4",
      "primitives": [
        {
          "attributes": {
            "NORMAL": 17,
            "POSITION": 16
          },
          "indices": 18,
          "material": 1,
          "mode": 4
        }
      ]
    },
    {
      "name": "Object_5",
      "primitives": [
        {
          "attributes": {
            "NORMAL": 20,
            "POSITION": 19,
            "TEXCOORD_0": 21
          },
          "indices": 22,
          "material": 1,
          "mode": 4
        }
      ]
    },
    {
      "name": "Object_6",
      "primitives": [
        {
          "attributes": {
            "NORMAL": 24,
            "POSITION": 23,
            "TEXCOORD_0": 25
          },
          "indices": 26,
          "material": 2,
          "mode": 4
        }
      ]
    },
    {
      "name": "Object_7",
      "primitives": [
        {
          "attributes": {
            "NORMAL": 28,
            "POSITION": 27,
            "TEXCOORD_0": 29
          },
          "indices": 30,
          "material": 3,
          "mode": 4
        }
      ]
    },
    {
      "name": "Object_8",
      "primitives": [
        {
          "attributes": {
            "NORMAL": 32,
            "POSITION": 31,
            "TEXCOORD_0": 33
          },
          "indices": 34,
          "material": 4,
          "mode": 4
        }
      ]
    },
    {
      "name": "Object_9",
      "primitives": [
        {
          "attributes": {
            "NORMAL": 36,
            "POSITION": 35,
            "TEXCOORD_0": 37
          },
          "indices": 38,
          "material": 5,
          "mode": 4
        }
      ]
    }
  ],
  "nodes": [
    {
      "children": [
        1
      ],
      "matrix": [
        1.0,
        0.0,
        0.0,
        0.0,
        0.0,
        2.220446049250313e-16,
        -1.0,
        0.0,
        0.0,
        1.0,
        2.220446049250313e-16,
        0.0,
        0.0,
        0.0,
        0.0,
        1.0
      ],
      "name": "Sketchfab_model"
    },
    {
      "children": [
        2,
        3,
        4,
        5,
        6,
        7,
        8,
        9,
        10,
        11
      ],
      "name": "Heart_Valentines_Day.obj.cleaner.materialmerger.gles"
    },
    {
      "mesh": 0,
      "name": "Object_2"
    },
    {
      "mesh": 1,
      "name": "Object_3"
    },
    {
      "mesh": 2,
      "name": "Object_4"
    },
    {
      "mesh": 3,
      "name": "Object_5"
    },
    {
      "mesh": 4,
      "name": "Object_6"
    },
    {
      "mesh": 5,
      "name": "Object_7"
    },
    {
      "mesh": 6,
      "name": "Object_8"
    },
    {
      "mesh": 7,
      "name": "Object_9"
    },
    {
      "mesh": 8,
      "name": "Object_10"
    },
    {
      "mesh": 9,
      "name": "Object_11"
    }
  ],
  "scene": 0,
  "scenes": [
    {
      "name": "Sketchfab_Scene",
      "nodes": [
        0
      ]
    }
  ]
}
